<svg class="icon" aria-hidden="true" role="img" xmlns="http://www.w3.org/2000/svg" width="112" height="112" viewBox="0 0 112 112"><path d="M62.3 58.25c-2.02 0-2.99 1.13-6.3 1.13s-4.28-1.12-6.3-1.12c-5.22 0-9.45 4.23-9.45 9.45v2.93c0 1.86 1.51 3.38 3.38 3.38h24.75c1.86 0 3.38-1.51 3.38-3.37V67.7C71.75 62.48 67.52 58.25 62.3 58.25zM69.5 70.63c0 0.62-0.51 1.13-1.12 1.13h-24.75c-0.62 0-1.12-0.51-1.12-1.12V67.7c0-3.97 3.23-7.2 7.2-7.2 1.38 0 2.75 1.13 6.3 1.13 3.54 0 4.92-1.12 6.3-1.12 3.97 0 7.2 3.23 7.2 7.2V70.63zM56 56c4.97 0 9-4.03 9-9s-4.03-9-9-9c-4.97 0-9 4.03-9 9S51.03 56 56 56zM56 40.25c3.72 0 6.75 3.03 6.75 6.75s-3.03 6.75-6.75 6.75 -6.75-3.03-6.75-6.75S52.28 40.25 56 40.25z" fill="#FFF"/></svg>